<mxfile host="app.diagrams.net" modified="2021-03-14T09:23:23.359Z" agent="5.0 (Windows NT 10.0; Win64; x64) AppleWebKit/537.36 (KHTML, like Gecko) Chrome/88.0.4302.0 Safari/537.36" etag="HHO7-PfufTEJ_9v_Zm2i" version="14.2.7" type="github">
  <diagram name="Page-1" id="f1b7ffb7-ca1e-a977-7cf5-a751b3c06c05">
    <mxGraphModel dx="782" dy="1559" grid="1" gridSize="10" guides="1" tooltips="1" connect="1" arrows="1" fold="1" page="1" pageScale="1" pageWidth="826" pageHeight="1169" background="#ffffff" math="0" shadow="0">
      <root>
        <mxCell id="0" />
        <mxCell id="1" parent="0" />
        <mxCell id="3nj9MJ5Lxi6BeN0qYhop-61" value="" style="shape=curlyBracket;whiteSpace=wrap;html=1;rounded=1;" vertex="1" parent="1">
          <mxGeometry x="388" y="-270" width="52" height="150" as="geometry" />
        </mxCell>
        <mxCell id="3nj9MJ5Lxi6BeN0qYhop-69" value="客户端脚本安全" style="text;html=1;align=center;verticalAlign=middle;resizable=0;points=[];autosize=1;" vertex="1" parent="1">
          <mxGeometry x="443" y="-280" width="100" height="20" as="geometry" />
        </mxCell>
        <mxCell id="3nj9MJ5Lxi6BeN0qYhop-70" value="网络安全" style="text;html=1;align=center;verticalAlign=middle;resizable=0;points=[];autosize=1;" vertex="1" parent="1">
          <mxGeometry x="328" y="-205" width="60" height="20" as="geometry" />
        </mxCell>
        <mxCell id="3nj9MJ5Lxi6BeN0qYhop-71" value="服务器端应用安全&lt;br&gt;" style="text;html=1;align=center;verticalAlign=middle;resizable=0;points=[];autosize=1;" vertex="1" parent="1">
          <mxGeometry x="438" y="-130" width="110" height="20" as="geometry" />
        </mxCell>
        <mxCell id="3nj9MJ5Lxi6BeN0qYhop-74" value="" style="shape=curlyBracket;whiteSpace=wrap;html=1;rounded=1;" vertex="1" parent="1">
          <mxGeometry x="548" y="-330" width="20" height="120" as="geometry" />
        </mxCell>
        <mxCell id="3nj9MJ5Lxi6BeN0qYhop-75" value="" style="shape=curlyBracket;whiteSpace=wrap;html=1;rounded=1;" vertex="1" parent="1">
          <mxGeometry x="548" y="-180" width="20" height="120" as="geometry" />
        </mxCell>
        <mxCell id="3nj9MJ5Lxi6BeN0qYhop-76" value="跨站脚本攻击" style="text;html=1;align=center;verticalAlign=middle;resizable=0;points=[];autosize=1;" vertex="1" parent="1">
          <mxGeometry x="565" y="-340" width="90" height="20" as="geometry" />
        </mxCell>
        <mxCell id="3nj9MJ5Lxi6BeN0qYhop-77" value="跨站点请求伪造" style="text;html=1;align=center;verticalAlign=middle;resizable=0;points=[];autosize=1;" vertex="1" parent="1">
          <mxGeometry x="565" y="-280" width="100" height="20" as="geometry" />
        </mxCell>
        <mxCell id="3nj9MJ5Lxi6BeN0qYhop-78" value="点击劫持等" style="text;html=1;align=center;verticalAlign=middle;resizable=0;points=[];autosize=1;" vertex="1" parent="1">
          <mxGeometry x="560" y="-220" width="80" height="20" as="geometry" />
        </mxCell>
        <mxCell id="3nj9MJ5Lxi6BeN0qYhop-79" value="SQL注入攻击" style="text;html=1;align=center;verticalAlign=middle;resizable=0;points=[];autosize=1;" vertex="1" parent="1">
          <mxGeometry x="568" y="-190" width="90" height="20" as="geometry" />
        </mxCell>
        <mxCell id="3nj9MJ5Lxi6BeN0qYhop-80" value="文件上传漏洞" style="text;html=1;align=center;verticalAlign=middle;resizable=0;points=[];autosize=1;" vertex="1" parent="1">
          <mxGeometry x="568" y="-150" width="90" height="20" as="geometry" />
        </mxCell>
        <mxCell id="3nj9MJ5Lxi6BeN0qYhop-81" value="访问控制漏洞" style="text;html=1;align=center;verticalAlign=middle;resizable=0;points=[];autosize=1;" vertex="1" parent="1">
          <mxGeometry x="568" y="-110" width="90" height="20" as="geometry" />
        </mxCell>
        <mxCell id="3nj9MJ5Lxi6BeN0qYhop-82" value="组件漏洞等" style="text;html=1;align=center;verticalAlign=middle;resizable=0;points=[];autosize=1;" vertex="1" parent="1">
          <mxGeometry x="568" y="-70" width="80" height="20" as="geometry" />
        </mxCell>
      </root>
    </mxGraphModel>
  </diagram>
</mxfile>
